<?xml version="1.0" encoding="utf-8"?>
<!-- Generator: Adobe Illustrator 27.5.0, SVG Export Plug-In . SVG Version: 6.00 Build 0)  -->
<svg version="1.1" xmlns="http://www.w3.org/2000/svg" xmlns:xlink="http://www.w3.org/1999/xlink" x="0px" y="0px"
	 viewBox="0 0 500 360" style="enable-background:new 0 0 500 360;" xml:space="preserve">
<style type="text/css">
	.st0{display:none;}
	.st1{display:inline;opacity:0.33;fill:#ED1C24;}
	.st2{display:inline;fill:#FFF200;}
	.st3{display:inline;fill:#FFFFFF;}
	.st4{display:inline;}
	.st5{fill:#25509C;}
</style>
<g id="Layer_5" class="st0">
	<path class="st1" d="M252.95,267.62c-33.39,0-66.78-0.03-100.17,0.02c-10.94,0.01-20.45-3.47-27-12.36
		c-8.68-11.78-9.1-24.55-2-37.26c9.38-16.8,19.11-33.4,28.69-50.08c23.75-41.37,47.5-82.74,71.26-124.09
		c10.23-17.79,33.63-22.84,49.63-10.39c3.53,2.75,6.52,6.58,8.8,10.48c27.68,47.5,55.18,95.12,82.74,142.69
		c5.96,10.28,12.08,20.46,17.97,30.79c12.18,21.35-2.56,49.94-27.87,50.12c-34.01,0.24-68.02,0.06-102.04,0.06
		C252.95,267.6,252.95,267.61,252.95,267.62z"/>
</g>
<g id="triangle_copy" class="st0">
	<path class="st1" d="M236.7,306.17c-33.39,0-66.78-0.03-100.17,0.02c-10.94,0.01-20.45-3.47-27-12.36
		c-8.68-11.78-9.1-24.55-2-37.26c9.38-16.8,19.11-33.4,28.69-50.08c23.75-41.37,47.5-82.74,71.26-124.09
		c10.23-17.79,33.63-22.84,49.63-10.39c3.53,2.75,6.52,6.58,8.8,10.48c27.68,47.5,55.18,95.12,82.74,142.69
		c5.96,10.28,12.08,20.46,17.97,30.79c12.18,21.35-2.56,49.94-27.87,50.12c-34.01,0.24-68.02,0.06-102.04,0.06
		C236.7,306.15,236.7,306.16,236.7,306.17z"/>
</g>
<g id="wheel_copy" class="st0">
	<path class="st2" d="M202.46,298.52c-19.88-0.01-39.76-0.01-59.64,0.02c-10.27,0.01-19.2-3.26-25.36-11.61
		c-8.15-11.06-8.54-23.05-1.88-34.98c8.81-15.78,17.94-31.36,26.94-47.03c1.09-1.89,2.17-3.78,3.26-5.67
		c-0.64,4.48-0.95,9.06-0.93,13.73C145.07,254.05,169.74,285.34,202.46,298.52z"/>
	<path class="st2" d="M236.25,120.01c-21.25,0.15-40.79,7.48-56.3,19.73c9.83-17.12,19.66-34.23,29.5-51.35
		c9.61-16.71,31.58-21.44,46.6-9.75c3.32,2.58,6.13,6.18,8.26,9.84c9.74,16.72,19.47,33.46,29.18,50.21
		C277.5,126.71,257.56,119.85,236.25,120.01z"/>
	<path class="st2" d="M332.69,298.44c-19.7,0.14-39.41,0.13-59.11,0.1c32.77-13.48,56.55-45.68,56.63-85.07
		c0.01-4.33-0.26-8.57-0.79-12.71c4.19,7.24,8.38,14.48,12.58,21.72c5.59,9.65,11.35,19.22,16.87,28.91
		C370.29,271.43,356.46,298.27,332.69,298.44z"/>
	<path class="st2" d="M323.81,70.37c-46.99,0.33-84.99,38.52-84.73,86.15c0.27,51.12,41.43,85.89,86.65,85.6
		c45.92,0.37,85.1-36.47,85.19-85.15C411.01,106.8,371.04,70.03,323.81,70.37z M262.83,130.24c9.2-21.9,25.59-35.21,48.73-40.28
		c1.28-0.28,2.58-0.52,3.88-0.65c3.16-0.32,6.33-0.56,9.49-0.83c26.91,0.1,52.48,17.28,62.43,42.21c0.49,1.23,0.65,3.34-0.05,4.07
		c-0.73,0.76-2.81,0.76-4.08,0.39c-12.05-3.52-24.04-7.22-36.06-10.79c-14-4.16-28.11-3.95-42.11-0.22
		c-12.64,3.37-25.13,7.28-37.73,10.82c-1.3,0.37-3.52,0.42-4.08-0.32C262.47,133.64,262.3,131.5,262.83,130.24z M310.67,216.34
		c-0.17,3.75-2.22,5.33-5.82,4.36c-14.71-3.99-26.38-12.42-35.33-24.64c-7.75-10.58-11.78-22.51-12.58-35.6
		c-0.2-3.25,1.06-4.25,4.18-4.06c14.38,0.89,25.9,7.58,35.27,17.99c9.39,10.43,14.02,22.98,14.29,37.02
		C310.68,213.06,310.75,214.71,310.67,216.34z M324.63,175.76c-11.13-0.13-20.29-9.54-20.2-20.75c0.08-11.3,9.29-20.94,20.31-20.75
		c13.94,0.24,21.3,11.43,20.94,21.43C345.27,166.66,335.83,175.9,324.63,175.76z M378.36,198.64
		c-8.11,10.05-18.28,17.12-30.47,21.37c-7.25,2.53-9.17,1.24-9.14-6.39c1.75-24.3,12.84-45.43,35.81-54.16
		c4.03-1.54,8.42-2.29,12.72-2.88c4.77-0.64,6.02,0.7,5.58,5.47C391.61,175.65,386.99,187.94,378.36,198.64z"/>
</g>
<g id="book" class="st0">
	<path class="st3" d="M27,108.62c0,83,0,166.01,0,249.01c63.24,0,126.48,0,189.72,0c-51.38-19.76-102.77-39.53-154.15-59.29
		c0-63.24,0-126.48,0-189.72C50.72,108.62,38.86,108.62,27,108.62z"/>
	<path class="st3" d="M165.31,271.89l-3.49-1.36c-0.99-0.38-1.84-0.01-2.24,1.02l-8.24,21.02c-0.41,1.03-0.04,1.88,0.95,2.27
		l3.49,1.35c1.04,0.4,1.89,0.03,2.3-1l8.24-21.02C166.72,273.14,166.35,272.29,165.31,271.89z M165.31,271.89l-3.49-1.36
		c-0.99-0.38-1.84-0.01-2.24,1.02l-8.24,21.02c-0.41,1.03-0.04,1.88,0.95,2.27l3.49,1.35c1.04,0.4,1.89,0.03,2.3-1l8.24-21.02
		C166.72,273.14,166.35,272.29,165.31,271.89z M165.31,271.89l-3.49-1.36c-0.99-0.38-1.84-0.01-2.24,1.02l-8.24,21.02
		c-0.41,1.03-0.04,1.88,0.95,2.27l3.49,1.35c1.04,0.4,1.89,0.03,2.3-1l8.24-21.02C166.72,273.14,166.35,272.29,165.31,271.89z
		 M185.81,280.01l-3.12,5.17l-6.71,11.72l5.7,2.22l2.99-13.17l1.28-5.89L185.81,280.01z M185.81,280.01l-3.12,5.17l-6.71,11.72
		l5.7,2.22l2.99-13.17l1.28-5.89L185.81,280.01z M165.31,271.89l-3.49-1.36c-0.99-0.38-1.84-0.01-2.24,1.02l-8.24,21.02
		c-0.41,1.03-0.04,1.88,0.95,2.27l3.49,1.35c1.04,0.4,1.89,0.03,2.3-1l8.24-21.02C166.72,273.14,166.35,272.29,165.31,271.89z
		 M114.86,130.4c-0.06-11.41,1.28-22.46,3.85-33.02c-10.8-4.16-21.62-8.31-32.42-12.47v201.58l154.15,59.28v-81.1
		C173.65,259.91,115.27,206.76,114.86,130.4z M104.92,291.14l-3.68-1.43l3.22-6l4.76,1.85L104.92,291.14z M121.48,274.11l-2.63,6.71
		c-1.29,3.28-4.56,4.71-7.86,3.43l-7.17-2.78c-3.25-1.27-4.74-4.55-3.45-7.83l2.32-5.92l5.89,2.29l-2.02,5.17
		c-0.41,1.03-0.08,1.86,0.91,2.24l3.54,1.38c1.03,0.4,1.84,0.01,2.24-1.03l2.19-5.58c0.35-0.89,0.24-1.58-0.5-2.19l-6.68-4.98
		c-2.24-1.63-2.74-4.52-1.56-7.52l2.5-6.39c1.29-3.28,4.61-4.69,7.87-3.43l7.16,2.78c3.3,1.29,4.74,4.55,3.45,7.83l-2.34,5.96
		l-5.89-2.29l2.04-5.21c0.41-1.03,0.08-1.86-0.96-2.26l-3.53-1.37c-0.99-0.39-1.8,0-2.2,1.03l-2.02,5.17
		c-0.37,0.93-0.24,1.58,0.64,2.24l6,4.5C122.41,268.14,122.86,270.59,121.48,274.11z M141.24,289.51c-1.29,3.29-4.61,4.7-7.91,3.42
		l-7.17-2.78c-3.25-1.27-4.73-4.55-3.45-7.83l8.83-22.53c1.29-3.28,4.61-4.69,7.87-3.43l7.16,2.78c3.3,1.29,4.78,4.57,3.5,7.85
		l-2.69,6.85l-5.89-2.29l2.39-6.1c0.41-1.03,0.03-1.88-1-2.28l-3.49-1.36c-0.99-0.38-1.85-0.01-2.25,1.02l-8.24,21.03
		c-0.41,1.03-0.03,1.87,0.96,2.26l3.49,1.36c1.03,0.4,1.89,0.03,2.29-1.01l2.74-6.99l5.89,2.29L141.24,289.51z M155.76,301.64
		l-7.16-2.78c-3.25-1.26-4.74-4.54-3.45-7.83l8.83-22.52c1.29-3.28,4.61-4.7,7.86-3.43l7.17,2.78c3.3,1.28,4.78,4.56,3.49,7.85
		l-8.83,22.52C162.39,301.51,159.06,302.93,155.76,301.64z M179.09,310.44l1.48-6.4l-7.07-2.75l-3.27,5.7l-5.99-2.32l18.82-31.08
		l9.28,3.61l-7.36,35.53L179.09,310.44z M202.94,319.7l-14.42-5.6l13.06-33.32l5.89,2.29l-11.2,28.58l8.53,3.31L202.94,319.7z
		 M225.99,328.66l-5.89-2.29l1.48-6.4l-7.07-2.75l-3.27,5.71l-5.99-2.33l18.81-31.08l9.29,3.61L225.99,328.66z M216.99,312.83
		l5.7,2.22l2.99-13.17l1.28-5.88l-0.15-0.06l-3.11,5.17L216.99,312.83z M185.81,280.01l-3.12,5.17l-6.71,11.72l5.7,2.22l2.99-13.17
		l1.28-5.89L185.81,280.01z M165.31,271.89l-3.49-1.36c-0.99-0.38-1.84-0.01-2.24,1.02l-8.24,21.02c-0.41,1.03-0.04,1.88,0.95,2.27
		l3.49,1.35c1.04,0.4,1.89,0.03,2.3-1l8.24-21.02C166.72,273.14,166.35,272.29,165.31,271.89z M165.31,271.89l-3.49-1.36
		c-0.99-0.38-1.84-0.01-2.24,1.02l-8.24,21.02c-0.41,1.03-0.04,1.88,0.95,2.27l3.49,1.35c1.04,0.4,1.89,0.03,2.3-1l8.24-21.02
		C166.72,273.14,166.35,272.29,165.31,271.89z M185.81,280.01l-3.12,5.17l-6.71,11.72l5.7,2.22l2.99-13.17l1.28-5.89L185.81,280.01z
		 M185.81,280.01l-3.12,5.17l-6.71,11.72l5.7,2.22l2.99-13.17l1.28-5.89L185.81,280.01z M165.31,271.89l-3.49-1.36
		c-0.99-0.38-1.84-0.01-2.24,1.02l-8.24,21.02c-0.41,1.03-0.04,1.88,0.95,2.27l3.49,1.35c1.04,0.4,1.89,0.03,2.3-1l8.24-21.02
		C166.72,273.14,166.35,272.29,165.31,271.89z"/>
	<path class="st3" d="M477.59,108.62c0,83,0,166.01,0,249.01c-63.24,0-126.48,0-189.72,0c51.38-19.76,102.77-39.53,154.15-59.29
		c0-63.24,0-126.48,0-189.72C453.87,108.62,465.73,108.62,477.59,108.62z"/>
	<path class="st3" d="M293.8,315.86c0.4,1.01,0.06,1.86-1.03,2.28l-5.32,2.03l-9.72-24.38l5.33-2.03c1.08-0.42,1.92-0.02,2.33,0.99
		L293.8,315.86z"/>
	<path class="st3" d="M312.17,292.64l-2.81-7.05c-0.4-1.01-1.29-1.39-2.38-0.98l-5.23,2l4.12,10.32l5.23-2
		C312.18,294.52,312.57,293.65,312.17,292.64z M337.08,285.83l-3.75-9.41c-0.4-1.01-1.24-1.4-2.32-0.99l-5.18,1.98l5.07,12.72
		l5.18-1.98C337.16,287.73,337.5,286.88,337.08,285.83z M337.08,285.83l-3.75-9.41c-0.4-1.01-1.24-1.4-2.32-0.99l-5.18,1.98
		l5.07,12.72l5.18-1.98C337.16,287.73,337.5,286.88,337.08,285.83z M312.17,292.64l-2.81-7.05c-0.4-1.01-1.29-1.39-2.38-0.98
		l-5.23,2l4.12,10.32l5.23-2C312.18,294.52,312.57,293.65,312.17,292.64z M312.17,292.64l-2.81-7.05c-0.4-1.01-1.29-1.39-2.38-0.98
		l-5.23,2l4.12,10.32l5.23-2C312.18,294.52,312.57,293.65,312.17,292.64z M337.08,285.83l-3.75-9.41c-0.4-1.01-1.24-1.4-2.32-0.99
		l-5.18,1.98l5.07,12.72l5.18-1.98C337.16,287.73,337.5,286.88,337.08,285.83z M337.08,285.83l-3.75-9.41
		c-0.4-1.01-1.24-1.4-2.32-0.99l-5.18,1.98l5.07,12.72l5.18-1.98C337.16,287.73,337.5,286.88,337.08,285.83z M312.17,292.64
		l-2.81-7.05c-0.4-1.01-1.29-1.39-2.38-0.98l-5.23,2l4.12,10.32l5.23-2C312.18,294.52,312.57,293.65,312.17,292.64z M381.41,99.1
		c2.33,10.18,3.57,20.89,3.54,32.01c-0.13,71.87-54.44,127.31-120.8,133.33v81.33l154.15-59.28V84.91
		C406.01,89.64,393.7,94.37,381.41,99.1z M296.63,322.25l-13.42,5.13l-13.58-34.08l13.42-5.13c3.45-1.32,6.88,0.14,8.21,3.5
		l8.99,22.56C301.59,317.59,300.08,320.93,296.63,322.25z M320.41,313.16l-4.96-12.43c-0.4-1.01-1.24-1.4-2.32-0.99l-5.33,2.04
		l5.6,14.06l-6.16,2.36l-13.58-34.08l13.27-5.07c3.45-1.32,6.87,0.14,8.26,3.48l2.71,6.65c1.06,2.52,0.32,5.08-1.6,6.69
		c2.67-0.3,4.69,0.92,5.74,3.56l4.53,11.38L320.41,313.16z M339.88,292.28l-7.05,2.7l4.65,11.66l-6.17,2.36l-13.58-34.08l13.22-5.05
		c3.45-1.32,6.93,0.12,8.26,3.48l4.37,10.94C344.9,287.6,343.34,290.96,339.88,292.28z M367.86,295.3l-7.5,2.87
		c-3.4,1.3-6.87-0.14-8.21-3.5l-9.18-23.04c-1.34-3.36,0.22-6.72,3.62-8.02l7.5-2.86c3.45-1.32,6.92,0.12,8.26,3.48l2.8,7
		l-6.17,2.36l-2.49-6.24c-0.42-1.06-1.31-1.43-2.39-1.02l-3.65,1.4c-1.04,0.39-1.43,1.26-1.01,2.32l8.57,21.5
		c0.42,1.05,1.31,1.43,2.35,1.04l3.65-1.4c1.08-0.41,1.47-1.28,1.05-2.34l-2.85-7.15l6.17-2.35l3.16,7.91
		C372.87,290.62,371.31,293.98,367.86,295.3z M378.22,291.07l-13.58-34.08l6.17-2.36l13.58,34.08L378.22,291.07z M394.6,284.81
		l-20.09-31.59l6.22-2.37l14.94,24.81l0.1-0.04l-6.12-28.19l6.22-2.37l7.07,36.56L394.6,284.81z M333.33,276.42
		c-0.4-1.01-1.24-1.4-2.32-0.99l-5.18,1.98l5.07,12.72l5.18-1.98c1.08-0.42,1.42-1.27,1-2.32L333.33,276.42z M309.36,285.59
		c-0.4-1.01-1.29-1.39-2.38-0.98l-5.23,2l4.12,10.32l5.23-2c1.08-0.41,1.47-1.28,1.07-2.29L309.36,285.59z M312.17,292.64
		l-2.81-7.05c-0.4-1.01-1.29-1.39-2.38-0.98l-5.23,2l4.12,10.32l5.23-2C312.18,294.52,312.57,293.65,312.17,292.64z M337.08,285.83
		l-3.75-9.41c-0.4-1.01-1.24-1.4-2.32-0.99l-5.18,1.98l5.07,12.72l5.18-1.98C337.16,287.73,337.5,286.88,337.08,285.83z
		 M337.08,285.83l-3.75-9.41c-0.4-1.01-1.24-1.4-2.32-0.99l-5.18,1.98l5.07,12.72l5.18-1.98
		C337.16,287.73,337.5,286.88,337.08,285.83z M312.17,292.64l-2.81-7.05c-0.4-1.01-1.29-1.39-2.38-0.98l-5.23,2l4.12,10.32l5.23-2
		C312.18,294.52,312.57,293.65,312.17,292.64z M312.17,292.64l-2.81-7.05c-0.4-1.01-1.29-1.39-2.38-0.98l-5.23,2l4.12,10.32l5.23-2
		C312.18,294.52,312.57,293.65,312.17,292.64z M312.17,292.64l-2.81-7.05c-0.4-1.01-1.29-1.39-2.38-0.98l-5.23,2l4.12,10.32l5.23-2
		C312.18,294.52,312.57,293.65,312.17,292.64z"/>
</g>
<g id="wheel" class="st0">
	<path class="st3" d="M248.43,4.81C179.98,5.29,124.63,60.95,125,130.37c0.39,74.51,60.35,125.18,126.23,124.75
		c66.89,0.53,123.97-53.15,124.1-124.1C375.46,57.9,317.24,4.31,248.43,4.81z M159.6,92.07c13.41-31.91,37.27-51.31,70.99-58.7
		c1.87-0.41,3.76-0.76,5.65-0.94c4.61-0.46,9.22-0.81,13.82-1.2c39.2,0.15,76.45,25.18,90.94,61.52c0.72,1.79,0.95,4.87-0.07,5.94
		c-1.06,1.11-4.09,1.11-5.95,0.57c-17.55-5.12-35.01-10.53-52.53-15.73c-20.4-6.07-40.95-5.75-61.34-0.32
		c-18.41,4.91-36.61,10.6-54.96,15.78c-1.89,0.53-5.12,0.61-5.94-0.46C159.08,97.02,158.83,93.9,159.6,92.07z M229.29,217.56
		c-0.25,5.47-3.24,7.77-8.48,6.35c-21.43-5.81-38.42-18.1-51.46-35.91c-11.29-15.42-17.16-32.81-18.32-51.89
		c-0.29-4.73,1.54-6.2,6.09-5.91c20.95,1.3,37.73,11.04,51.38,26.23c13.68,15.2,20.43,33.49,20.82,53.96
		C229.32,212.77,229.41,215.17,229.29,217.56z M249.63,158.41c-16.22-0.19-29.55-13.9-29.43-30.25
		c0.12-16.46,13.54-30.52,29.58-30.24c20.3,0.35,31.03,16.66,30.5,31.23C279.7,145.14,265.95,158.61,249.63,158.41z M327.89,191.75
		c-11.81,14.64-26.63,24.95-44.39,31.15c-10.56,3.69-13.35,1.81-13.31-9.32c2.55-35.41,18.71-66.21,52.17-78.94
		c5.87-2.24,12.27-3.34,18.53-4.19c6.94-0.93,8.77,1.02,8.13,7.97C347.2,158.24,340.47,176.16,327.89,191.75z"/>
</g>
<g id="book_2" class="st0">
	<g id="Layer_11" class="st4">
		<path d="M90,126.65c0.17,56.91,0.33,113.83,0.5,170.74l144,0.26c-42.17-3-84.33-6-126.5-9c0-54,0-108,0-162
			C102,126.65,96,126.65,90,126.65z"/>
		<path d="M243.5,288.65l-126-18c-0.17-51-0.33-102-0.5-153c7.18,1.03,14.36,2.05,21.54,3.08c-2.36,9.2-3.59,18.86-3.54,28.84
			c0.35,65.03,51.21,109.85,108.41,111.99C243.44,270.59,243.47,279.62,243.5,288.65z"/>
		<path d="M405,126.65c0.17,56.91,0.33,113.83,0.5,170.74l-144,0.26c41.83-3,83.67-6,125.5-9c0-54,0-108,0-162
			C393,126.65,399,126.65,405,126.65z"/>
		<path d="M378.5,270.65l-126,18c-0.03-9.02-0.06-18.03-0.09-27.05c58.4-1.61,107.47-49.1,107.59-111.44
			c0.02-10.27-1.24-20.12-3.63-29.42c7.21-1.03,14.42-2.06,21.63-3.09C378.17,168.65,378.33,219.65,378.5,270.65z"/>
		<path d="M171,315.65"/>
	</g>
	<g id="Layer_13" class="st4">
		<path d="M246.11,48.22c-55.26,0.39-99.94,45.3-99.65,101.31c0.32,60.12,48.72,101,101.9,100.66
			c54,0.43,100.08-42.88,100.18-100.13C348.65,91.06,301.65,47.82,246.11,48.22z M174.4,118.63c10.82-25.75,30.09-41.4,57.31-47.37
			c1.51-0.33,3.03-0.61,4.56-0.76c3.72-0.37,7.44-0.65,11.16-0.97c31.65,0.12,61.71,20.32,73.42,49.64
			c0.58,1.44,0.77,3.93-0.06,4.79c-0.86,0.9-3.3,0.9-4.8,0.46c-14.17-4.14-28.27-8.49-42.41-12.69
			c-16.47-4.89-33.06-4.64-49.52-0.26c-14.86,3.96-29.56,8.56-44.36,12.73c-1.53,0.43-4.14,0.49-4.8-0.37
			C173.97,122.63,173.77,120.1,174.4,118.63z M230.66,219.88c-0.21,4.42-2.62,6.27-6.84,5.13c-17.3-4.69-31.02-14.6-41.54-28.98
			c-9.11-12.44-13.86-26.47-14.79-41.87c-0.23-3.82,1.25-5,4.91-4.77c16.91,1.05,30.46,8.91,41.47,21.16
			c11.04,12.27,16.49,27.02,16.81,43.54C230.67,216.02,230.75,217.96,230.66,219.88z M247.07,172.16
			c-13.09-0.16-23.86-11.22-23.76-24.41c0.09-13.28,10.93-24.62,23.88-24.4c16.39,0.28,25.05,13.45,24.62,25.2
			C271.35,161.45,260.25,172.32,247.07,172.16z M310.25,199.06c-9.53,11.81-21.5,20.13-35.83,25.13
			c-8.53,2.98-10.78,1.46-10.75-7.52c2.06-28.57,15.1-53.42,42.12-63.69c4.74-1.81,9.9-2.7,14.96-3.38c5.6-0.75,7.08,0.82,6.56,6.43
			C325.84,172.02,320.41,186.48,310.25,199.06z"/>
	</g>
</g>
<g id="Layer_9">
	<path class="st5" d="M60.33,178.07c53.67,12.78,107.33,25.56,161,38.33c0,5.11,0,10.22,0,15.33c20.44,0,40.89,0,61.33,0
		c0-5.11,0-10.22,0-15.33l161-38.33v-7.67L275,208.74c0,5.11,0,10.22,0,15.33c-15.33,0-30.67,0-46,0c0-5.11,0-10.22,0-15.33
		c-56.22-12.78-112.44-25.56-168.66-38.33C60.33,172.96,60.33,175.52,60.33,178.07z"/>
	<path class="st5" d="M267.33,208.74c14.52-7.72,31.8-15.51,51.75-22.04c39.58-12.96,75.11-16.19,101.58-16.29
		c5.11-15.33,10.22-30.67,15.33-46c-14.65,1.92-30.8,5.19-47.92,10.54C330.8,152.86,290.9,185.37,267.33,208.74z"/>
	<path class="st5" d="M443.66,93.74l-7.67,23c-20.53,1.97-51.26,6.99-85.02,21.1c-7.79,3.25-15.75,6.99-23.77,11.3
		c-9.36,5.01-18.83,10.78-28.25,17.44c-11.76,8.31-22.02,16.97-30.92,25.49c-5.93,5.67-11.26,11.28-16.03,16.68
		c4.05-7.41,9.61-16.59,17.02-26.53c10.69-14.34,25.24-30.27,44.74-44.78c5.5-4.1,11.04-7.8,16.56-11.17
		c7.04-4.29,14.06-8.02,20.97-11.25C390.98,96.46,427.21,94.06,443.66,93.74z"/>
	<path class="st5" d="M236.66,208.74c-14.52-7.72-31.8-15.51-51.75-22.04c-39.58-12.96-75.11-16.19-101.58-16.29
		c-5.11-15.33-10.22-30.67-15.33-46c14.65,1.92,30.8,5.19,47.92,10.54C173.19,152.86,213.1,185.37,236.66,208.74z"/>
	<path class="st5" d="M252,208.74c-4.91-5.55-10.39-11.31-16.53-17.16c-8.78-8.36-18.89-16.86-30.43-25.01
		c-9.46-6.68-18.96-12.47-28.36-17.5c-7.93-4.25-15.78-7.95-23.49-11.17c-33.83-14.17-64.64-19.19-85.2-21.17l-7.67-23
		c16.45,0.32,52.71,2.72,92.42,21.3c6.85,3.2,13.8,6.89,20.77,11.13c5.58,3.39,11.17,7.14,16.72,11.27
		c19.56,14.56,34.15,30.55,44.84,44.93C242.45,192.24,247.97,201.37,252,208.74z"/>
	<g>
		<path class="st5" d="M11.76,296.04V284.7h11.25v9.9c0,1.98,1.08,3.15,2.97,3.15h6.75c1.98,0,3.06-1.17,3.06-3.15v-10.71
			c0-1.71-0.63-2.79-2.25-3.33l-14.31-3.96c-4.77-1.26-7.47-5.76-7.47-11.52v-12.24c0-6.3,4.59-10.8,10.8-10.8h13.68
			c6.3,0,10.8,4.5,10.8,10.8v11.43H35.78v-9.99c0-1.98-1.08-3.15-3.06-3.15h-6.75c-1.89,0-2.97,1.17-2.97,3.15v9.9
			c0,1.8,0.63,2.79,2.52,3.33l12.87,3.6c6.3,1.53,8.64,5.31,8.64,12.06v12.87c0,6.3-4.5,10.8-10.8,10.8H22.56
			C16.35,306.84,11.76,302.34,11.76,296.04z M34.16,310.17l-3.51,12.06h-7.02l1.44-12.06H34.16z"/>
		<path class="st5" d="M54.41,296.04v-43.2c0-6.3,4.59-10.8,10.8-10.8h13.68c6.3,0,10.89,4.5,10.89,10.8v13.14H78.53v-11.7
			c0-1.98-1.17-3.15-3.15-3.15h-6.66c-1.89,0-3.06,1.17-3.06,3.15v40.32c0,1.98,1.17,3.15,3.06,3.15h6.66
			c1.98,0,3.15-1.17,3.15-3.15v-13.41h11.25v14.85c0,6.3-4.59,10.8-10.89,10.8H65.21C59,306.84,54.41,302.34,54.41,296.04z"/>
		<path class="st5" d="M97.25,296.04v-43.2c0-6.3,4.59-10.8,10.8-10.8h13.68c6.3,0,10.89,4.5,10.89,10.8v43.2
			c0,6.3-4.59,10.8-10.89,10.8h-13.68C101.84,306.84,97.25,302.34,97.25,296.04z M118.22,297.75c1.98,0,3.15-1.17,3.15-3.15v-40.32
			c0-1.98-1.17-3.15-3.15-3.15h-6.66c-1.89,0-3.06,1.17-3.06,3.15v40.32c0,1.98,1.17,3.15,3.06,3.15H118.22z"/>
		<path class="st5" d="M164.39,294.78h-13.5l-1.71,11.61h-11.43l10.98-63.9h17.73l10.89,63.9H166.1L164.39,294.78z M163.04,285.87
			l-3.6-23.85l-1.71-10.62h-0.27l-1.8,10.62l-3.51,23.85H163.04z"/>
		<path class="st5" d="M211.64,297.3v9.09H184.1v-63.9h11.25v54.81H211.64z"/>
		<path class="st5" d="M242.69,294.78h-13.5l-1.71,11.61h-11.43l10.98-63.9h17.73l10.89,63.9H244.4L242.69,294.78z M241.34,285.87
			l-3.6-23.85l-1.71-10.62h-0.27l-1.8,10.62l-3.51,23.85H241.34z"/>
		<path class="st5" d="M297.68,253.29v42.3c0,6.3-4.5,10.8-10.8,10.8H262.4v-63.9h24.48C293.18,242.49,297.68,246.99,297.68,253.29z
			 M286.43,254.64c0-1.89-1.08-3.06-3.06-3.06h-9.72v45.72h9.72c1.98,0,3.06-1.17,3.06-3.06V254.64z"/>
		<path class="st5" d="M341.51,285.06v21.33h-11.25v-23.31c0-1.89-1.08-3.06-3.06-3.06h-9.72v26.37h-11.25v-63.9h24.21
			c6.3,0,10.8,4.5,10.89,10.8l0.09,12.51c0.09,4.77-2.7,8.46-6.75,9.9C339.08,276.87,341.51,280.11,341.51,285.06z M317.48,251.58
			v19.35h9.54c1.98,0,3.15-1.17,3.15-3.06v-13.23c0-1.89-1.17-3.06-3.15-3.06H317.48z"/>
		<path class="st5" d="M385.16,253.29v20.52c0,6.21-4.59,10.71-10.89,10.71H361.4v21.87h-11.25v-63.9h24.12
			C380.57,242.49,385.16,246.99,385.16,253.29z M373.91,254.64c0-1.89-1.08-3.06-3.06-3.06h-9.45v23.85h9.45
			c1.98,0,3.06-1.17,3.06-3.15V254.64z"/>
		<path class="st5" d="M392.18,296.04v-43.2c0-6.3,4.59-10.8,10.8-10.8h13.68c6.3,0,10.89,4.5,10.89,10.8v13.14H416.3v-11.7
			c0-1.98-1.17-3.15-3.15-3.15h-6.66c-1.89,0-3.06,1.17-3.06,3.15v40.32c0,1.98,1.17,3.15,3.06,3.15h6.66
			c1.98,0,3.15-1.17,3.15-3.15v-13.41h11.25v14.85c0,6.3-4.59,10.8-10.89,10.8h-13.68C396.77,306.84,392.18,302.34,392.18,296.04z"
			/>
		<path class="st5" d="M435.74,242.49h11.25v63.9h-11.25V242.49z"/>
		<path class="st5" d="M492.71,242.49l-11.88,63.9h-15.21l-11.88-63.9h11.34l8.01,49.68h0.18l8.1-49.68H492.71z"/>
	</g>
</g>
<g id="Layer_10">
	<path class="st5" d="M250.67,24.74c-51.31,0.37-93.37,39.61-97.92,90.3c6.85,3.2,13.8,6.89,20.77,11.13
		c0.67-1.29,2.1-1.72,4.4-1.58c16.7,1.03,30.06,8.8,40.93,20.89c9.52,10.58,14.83,23.03,16.23,36.88
		c7.37,9.88,12.89,19.01,16.92,26.38c4.05-7.41,9.61-16.59,17.02-26.53c3.89-24.42,16.7-45,40.56-54.07
		c4.68-1.79,9.77-2.67,14.76-3.34c3.29-0.44,5.14-0.08,5.98,1.47c7.04-4.29,14.06-8.02,20.97-11.25
		C346.31,62.09,302.22,24.38,250.67,24.74z M276.04,123.77c-0.46,12.72-11.41,23.45-24.42,23.29
		c-12.91-0.15-23.54-11.07-23.44-24.08c0.09-13.11,10.78-24.3,23.57-24.08C267.93,99.17,276.47,112.16,276.04,123.77z M324.36,99.49
		c-0.84,0.89-3.25,0.89-4.74,0.45c-13.98-4.08-27.9-8.38-41.85-12.52c-16.25-4.83-32.63-4.58-48.87-0.26
		c-14.67,3.91-29.17,8.45-43.78,12.56c-1.51,0.43-4.08,0.49-4.73-0.37c-0.9-1.19-1.1-3.68-0.49-5.14
		c10.68-25.41,29.7-40.85,56.55-46.74c1.48-0.32,2.99-0.6,4.5-0.75c3.66-0.37,7.34-0.65,11.01-0.96
		c31.23,0.12,60.9,20.05,72.45,48.99C324.99,96.19,325.18,98.64,324.36,99.49z"/>
</g>
</svg>
